STARTFONT 2.1
FONT -gnu-sans14-bold-r-normal--18-180-75-75-P-80-0-0
SIZE 18 75 75
FONTBOUNDINGBOX 15 18 -1 -3
STARTPROPERTIES 22
POINT_SIZE 180
RESOLUTION_X 75
RESOLUTION_Y 75
SPACING "P"
FOUNDRY "gnu"
FAMILY_NAME "unifont"
WEIGHT_NAME "medium"
SLANT "r"
SETWIDTH_NAME "normal"
ADD_STYLE_NAME ""
PIXEL_SIZE 18
AVERAGE_WIDTH 80
CHARSET_REGISTRY "iso10646"
CHARSET_ENCODING "1"
_XMBDFED_INFO "Edited with xmbdfed 4.5."
WEIGHT 10
RESOLUTION 103
X_HEIGHT 0
QUAD_WIDTH 8
DEFAULT_CHAR 32
FONT_ASCENT 15
FONT_DESCENT 3
ENDPROPERTIES
CHARS 256
STARTCHAR char64
ENCODING 0
SWIDTH 746 0
DWIDTH 14 0
BBX 12 12 1 -1
BITMAP
0FC0
3860
60F0
6FB0
D9B0
D9B0
D9B0
DBF0
DBF0
6E60
3000
1FC0
ENDCHAR
STARTCHAR char9786
ENCODING 1
SWIDTH 426 0
DWIDTH 8 0
BBX 8 9 0 1
BITMAP
3C
42
81
A5
81
A5
99
42
3C
ENDCHAR
STARTCHAR char9787
ENCODING 2
SWIDTH 426 0
DWIDTH 8 0
BBX 8 9 0 1
BITMAP
3C
7E
FF
DB
FF
DB
E7
7E
3C
ENDCHAR
STARTCHAR char9829
ENCODING 3
SWIDTH 426 0
DWIDTH 8 0
BBX 7 9 1 0
BITMAP
6C
FE
FE
FE
FE
7C
38
10
10
ENDCHAR
STARTCHAR char9830
ENCODING 4
SWIDTH 426 0
DWIDTH 8 0
BBX 5 10 2 0
BITMAP
20
20
70
70
F8
F8
70
70
20
20
ENDCHAR
STARTCHAR char9827
ENCODING 5
SWIDTH 426 0
DWIDTH 8 0
BBX 7 10 1 0
BITMAP
38
38
38
10
FE
FE
D6
10
10
38
ENDCHAR
STARTCHAR char9824
ENCODING 6
SWIDTH 426 0
DWIDTH 8 0
BBX 7 10 1 0
BITMAP
10
10
38
7C
FE
FE
FE
7C
10
38
ENDCHAR
STARTCHAR char8226
ENCODING 7
SWIDTH 426 0
DWIDTH 8 0
BBX 5 5 1 2
BITMAP
70
F8
F8
F8
70
ENDCHAR
STARTCHAR char9688
ENCODING 8
SWIDTH 426 0
DWIDTH 8 0
BBX 8 16 0 -2
BITMAP
FF
FF
FF
FF
FF
FF
E7
C3
C3
E7
FF
FF
FF
FF
FF
FF
ENDCHAR
STARTCHAR char9702
ENCODING 9
SWIDTH 426 0
DWIDTH 8 0
BBX 5 5 1 2
BITMAP
70
88
88
88
70
ENDCHAR
STARTCHAR char9689
ENCODING 10
SWIDTH 426 0
DWIDTH 8 0
BBX 8 16 0 -2
BITMAP
FF
FF
FF
FF
FF
E7
DB
BD
BD
DB
E7
FF
FF
FF
FF
FF
ENDCHAR
STARTCHAR char9794
ENCODING 11
SWIDTH 426 0
DWIDTH 8 0
BBX 7 8 1 1
BITMAP
0E
06
0A
70
88
88
88
70
ENDCHAR
STARTCHAR char9792
ENCODING 12
SWIDTH 426 0
DWIDTH 8 0
BBX 5 9 2 0
BITMAP
70
88
88
88
70
20
F8
20
20
ENDCHAR
STARTCHAR char9834
ENCODING 13
SWIDTH 426 0
DWIDTH 8 0
BBX 6 10 1 0
BITMAP
10
18
14
14
10
10
10
70
F0
E0
ENDCHAR
STARTCHAR char9836
ENCODING 14
SWIDTH 426 0
DWIDTH 8 0
BBX 8 11 0 0
BITMAP
1C
17
11
1D
17
11
71
F1
E7
0F
0E
ENDCHAR
STARTCHAR char9788
ENCODING 15
SWIDTH 426 0
DWIDTH 8 0
BBX 7 7 1 2
BITMAP
92
54
38
EE
38
54
92
ENDCHAR
STARTCHAR char9654
ENCODING 16
SWIDTH 426 0
DWIDTH 8 0
BBX 6 6 1 3
BITMAP
C0
F0
FC
FC
F0
C0
ENDCHAR
STARTCHAR char9664
ENCODING 17
SWIDTH 426 0
DWIDTH 8 0
BBX 6 6 1 3
BITMAP
0C
3C
FC
FC
3C
0C
ENDCHAR
STARTCHAR char8597
ENCODING 18
SWIDTH 426 0
DWIDTH 8 0
BBX 5 9 2 1
BITMAP
20
70
A8
20
20
20
A8
70
20
ENDCHAR
STARTCHAR char8252
ENCODING 19
SWIDTH 426 0
DWIDTH 8 0
BBX 4 10 2 0
BITMAP
90
90
90
90
90
90
90
00
90
90
ENDCHAR
STARTCHAR char182
ENCODING 20
SWIDTH 426 0
DWIDTH 8 0
BBX 7 13 1 -1
BITMAP
7E
CA
8A
8A
CA
7A
0A
0A
0A
0A
0A
0A
0A
ENDCHAR
STARTCHAR char167
ENCODING 21
SWIDTH 480 0
DWIDTH 9 0
BBX 7 11 1 0
BITMAP
7C
C6
C0
7C
C6
C6
7C
06
06
C6
7C
ENDCHAR
STARTCHAR char9602
ENCODING 22
SWIDTH 426 0
DWIDTH 8 0
BBX 8 4 0 -2
BITMAP
FF
FF
FF
FF
ENDCHAR
STARTCHAR char8616
ENCODING 23
SWIDTH 426 0
DWIDTH 8 0
BBX 5 10 2 0
BITMAP
20
70
A8
20
20
20
A8
70
20
F8
ENDCHAR
STARTCHAR char8593
ENCODING 24
SWIDTH 426 0
DWIDTH 8 0
BBX 5 6 2 3
BITMAP
20
70
A8
20
20
20
ENDCHAR
STARTCHAR char8595
ENCODING 25
SWIDTH 426 0
DWIDTH 8 0
BBX 5 6 2 3
BITMAP
20
20
20
A8
70
20
ENDCHAR
STARTCHAR char8594
ENCODING 26
SWIDTH 426 0
DWIDTH 8 0
BBX 6 5 1 3
BITMAP
10
08
FC
08
10
ENDCHAR
STARTCHAR char8592
ENCODING 27
SWIDTH 426 0
DWIDTH 8 0
BBX 6 5 1 4
BITMAP
20
40
FC
40
20
ENDCHAR
STARTCHAR char8985
ENCODING 28
SWIDTH 426 0
DWIDTH 8 0
BBX 6 4 1 3
BITMAP
80
80
80
FC
ENDCHAR
STARTCHAR char8596
ENCODING 29
SWIDTH 426 0
DWIDTH 8 0
BBX 8 5 0 3
BITMAP
24
42
FF
42
24
ENDCHAR
STARTCHAR char9650
ENCODING 30
SWIDTH 426 0
DWIDTH 8 0
BBX 6 6 1 3
BITMAP
30
30
78
78
FC
FC
ENDCHAR
STARTCHAR char9660
ENCODING 31
SWIDTH 426 0
DWIDTH 8 0
BBX 6 6 1 3
BITMAP
FC
FC
78
78
30
30
ENDCHAR
STARTCHAR char32
ENCODING 32
SWIDTH 266 0
DWIDTH 5 0
BBX 0 0 0 0
BITMAP
ENDCHAR
STARTCHAR char33
ENCODING 33
SWIDTH 266 0
DWIDTH 5 0
BBX 2 11 2 0
BITMAP
C0
C0
C0
C0
C0
C0
C0
00
00
C0
C0
ENDCHAR
STARTCHAR char34
ENCODING 34
SWIDTH 373 0
DWIDTH 7 0
BBX 5 4 1 8
BITMAP
D8
D8
D8
D8
ENDCHAR
STARTCHAR char35
ENCODING 35
SWIDTH 480 0
DWIDTH 9 0
BBX 7 11 1 0
BITMAP
36
36
36
FE
6C
6C
FE
D8
D8
D8
D8
ENDCHAR
STARTCHAR char36
ENCODING 36
SWIDTH 480 0
DWIDTH 9 0
BBX 8 11 0 0
BITMAP
18
7E
DB
D8
78
1E
1B
DB
DB
7E
18
ENDCHAR
STARTCHAR char37
ENCODING 37
SWIDTH 480 0
DWIDTH 9 0
BBX 8 11 0 0
BITMAP
73
DE
DE
7C
18
18
3E
7B
7B
7B
CE
ENDCHAR
STARTCHAR char38
ENCODING 38
SWIDTH 533 0
DWIDTH 10 0
BBX 8 11 1 0
BITMAP
3C
66
66
66
3C
7B
CF
C6
C6
CE
7B
ENDCHAR
STARTCHAR char39
ENCODING 39
SWIDTH 213 0
DWIDTH 4 0
BBX 2 4 1 8
BITMAP
C0
C0
C0
C0
ENDCHAR
STARTCHAR char40
ENCODING 40
SWIDTH 320 0
DWIDTH 6 0
BBX 4 13 1 -1
BITMAP
30
60
60
C0
C0
C0
C0
C0
C0
C0
60
60
30
ENDCHAR
STARTCHAR char41
ENCODING 41
SWIDTH 320 0
DWIDTH 6 0
BBX 4 13 1 -1
BITMAP
C0
60
60
30
30
30
30
30
30
30
60
60
C0
ENDCHAR
STARTCHAR char42
ENCODING 42
SWIDTH 480 0
DWIDTH 9 0
BBX 8 8 0 1
BITMAP
18
DB
7E
3C
7E
DB
DB
18
ENDCHAR
STARTCHAR char43
ENCODING 43
SWIDTH 480 0
DWIDTH 9 0
BBX 8 8 0 1
BITMAP
18
18
18
FF
18
18
18
18
ENDCHAR
STARTCHAR char44
ENCODING 44
SWIDTH 213 0
DWIDTH 4 0
BBX 3 4 0 -2
BITMAP
E0
60
60
C0
ENDCHAR
STARTCHAR char45
ENCODING 45
SWIDTH 533 0
DWIDTH 10 0
BBX 8 1 1 4
BITMAP
FF
ENDCHAR
STARTCHAR char46
ENCODING 46
SWIDTH 266 0
DWIDTH 5 0
BBX 3 2 1 0
BITMAP
E0
E0
ENDCHAR
STARTCHAR char47
ENCODING 47
SWIDTH 266 0
DWIDTH 5 0
BBX 5 11 0 0
BITMAP
18
18
30
30
30
60
60
60
60
C0
C0
ENDCHAR
STARTCHAR char48
ENCODING 48
SWIDTH 480 0
DWIDTH 9 0
BBX 7 11 1 0
BITMAP
38
6C
C6
C6
C6
C6
C6
C6
C6
6C
38
ENDCHAR
STARTCHAR char49
ENCODING 49
SWIDTH 480 0
DWIDTH 9 0
BBX 4 11 2 0
BITMAP
30
70
F0
30
30
30
30
30
30
30
30
ENDCHAR
STARTCHAR char50
ENCODING 50
SWIDTH 480 0
DWIDTH 9 0
BBX 7 11 1 0
BITMAP
7C
C6
C6
06
1C
30
60
C0
C0
C0
FE
ENDCHAR
STARTCHAR char51
ENCODING 51
SWIDTH 480 0
DWIDTH 9 0
BBX 7 11 1 0
BITMAP
7C
C6
C6
06
3C
06
06
C6
C6
C6
7C
ENDCHAR
STARTCHAR char52
ENCODING 52
SWIDTH 480 0
DWIDTH 9 0
BBX 7 11 1 0
BITMAP
0C
1C
3C
6C
CC
CC
FE
0C
0C
0C
0C
ENDCHAR
STARTCHAR char53
ENCODING 53
SWIDTH 480 0
DWIDTH 9 0
BBX 7 11 1 0
BITMAP
FE
C0
C0
C0
FC
06
06
06
06
C6
7C
ENDCHAR
STARTCHAR char54
ENCODING 54
SWIDTH 480 0
DWIDTH 9 0
BBX 7 11 1 0
BITMAP
3C
60
C0
C0
FC
C6
C6
C6
C6
C6
7C
ENDCHAR
STARTCHAR char55
ENCODING 55
SWIDTH 480 0
DWIDTH 9 0
BBX 7 11 1 0
BITMAP
FE
06
06
0C
0C
0C
18
18
18
18
18
ENDCHAR
STARTCHAR char56
ENCODING 56
SWIDTH 480 0
DWIDTH 9 0
BBX 7 11 1 0
BITMAP
7C
C6
C6
C6
7C
C6
C6
C6
C6
C6
7C
ENDCHAR
STARTCHAR char57
ENCODING 57
SWIDTH 480 0
DWIDTH 9 0
BBX 7 11 1 0
BITMAP
7C
C6
C6
C6
7E
06
06
06
06
0C
78
ENDCHAR
STARTCHAR char58
ENCODING 58
SWIDTH 266 0
DWIDTH 5 0
BBX 3 8 1 1
BITMAP
E0
E0
00
00
00
E0
E0
E0
ENDCHAR
STARTCHAR char59
ENCODING 59
SWIDTH 266 0
DWIDTH 5 0
BBX 3 10 0 -1
BITMAP
E0
E0
00
00
00
E0
E0
60
60
C0
ENDCHAR
STARTCHAR char60
ENCODING 60
SWIDTH 480 0
DWIDTH 9 0
BBX 6 10 1 0
BITMAP
0C
18
30
60
C0
60
30
30
18
0C
ENDCHAR
STARTCHAR char61
ENCODING 61
SWIDTH 480 0
DWIDTH 9 0
BBX 7 6 1 2
BITMAP
FE
00
00
00
FE
FE
ENDCHAR
STARTCHAR char62
ENCODING 62
SWIDTH 480 0
DWIDTH 9 0
BBX 6 10 1 0
BITMAP
C0
60
30
18
0C
18
30
30
60
C0
ENDCHAR
STARTCHAR char63
ENCODING 63
SWIDTH 480 0
DWIDTH 9 0
BBX 7 11 1 0
BITMAP
7C
C6
C6
06
0C
18
18
00
00
18
18
ENDCHAR
STARTCHAR char64
ENCODING 64
SWIDTH 746 0
DWIDTH 14 0
BBX 12 12 1 -1
BITMAP
0FC0
3860
60F0
6FB0
D9B0
D9B0
D9B0
DBF0
DBF0
6E60
3000
1FC0
ENDCHAR
STARTCHAR char65
ENCODING 65
SWIDTH 533 0
DWIDTH 10 0
BBX 10 11 0 0
BITMAP
0C00
0C00
1E00
1E00
3300
3300
7F80
6180
6180
C0C0
C0C0
ENDCHAR
STARTCHAR char66
ENCODING 66
SWIDTH 533 0
DWIDTH 10 0
BBX 8 11 1 0
BITMAP
FE
C3
C3
C3
FE
C3
C3
C3
C3
C3
FE
ENDCHAR
STARTCHAR char67
ENCODING 67
SWIDTH 533 0
DWIDTH 10 0
BBX 8 11 1 0
BITMAP
7E
C3
C3
C0
C0
C0
C0
C3
C3
C3
7E
ENDCHAR
STARTCHAR char68
ENCODING 68
SWIDTH 533 0
DWIDTH 10 0
BBX 8 11 1 0
BITMAP
FC
C6
C3
C3
C3
C3
C3
C3
C3
C6
FC
ENDCHAR
STARTCHAR char69
ENCODING 69
SWIDTH 533 0
DWIDTH 10 0
BBX 8 11 1 0
BITMAP
FF
C0
C0
C0
FE
C0
C0
C0
C0
C0
FF
ENDCHAR
STARTCHAR char70
ENCODING 70
SWIDTH 480 0
DWIDTH 9 0
BBX 7 11 1 0
BITMAP
FE
C0
C0
C0
FC
C0
C0
C0
C0
C0
C0
ENDCHAR
STARTCHAR char71
ENCODING 71
SWIDTH 533 0
DWIDTH 10 0
BBX 8 11 1 0
BITMAP
7E
C3
C3
C0
C0
CF
C3
C3
C3
C7
7F
ENDCHAR
STARTCHAR char72
ENCODING 72
SWIDTH 533 0
DWIDTH 10 0
BBX 8 11 1 0
BITMAP
C3
C3
C3
C3
FF
C3
C3
C3
C3
C3
C3
ENDCHAR
STARTCHAR char73
ENCODING 73
SWIDTH 266 0
DWIDTH 5 0
BBX 2 11 2 0
BITMAP
C0
C0
C0
C0
C0
C0
C0
C0
C0
C0
C0
ENDCHAR
STARTCHAR char74
ENCODING 74
SWIDTH 373 0
DWIDTH 7 0
BBX 6 11 0 0
BITMAP
0C
0C
0C
0C
0C
0C
0C
CC
CC
CC
78
ENDCHAR
STARTCHAR char75
ENCODING 75
SWIDTH 480 0
DWIDTH 9 0
BBX 7 11 1 0
BITMAP
C6
CC
D8
F0
E0
E0
F0
D8
D8
CC
C6
ENDCHAR
STARTCHAR char76
ENCODING 76
SWIDTH 480 0
DWIDTH 9 0
BBX 7 11 2 0
BITMAP
C0
C0
C0
C0
C0
C0
C0
C0
C0
C0
FE
ENDCHAR
STARTCHAR char77
ENCODING 77
SWIDTH 640 0
DWIDTH 12 0
BBX 10 11 1 0
BITMAP
C0C0
E1C0
E1C0
F3C0
F3C0
DEC0
DEC0
CCC0
CCC0
CCC0
C0C0
ENDCHAR
STARTCHAR char78
ENCODING 78
SWIDTH 533 0
DWIDTH 10 0
BBX 8 11 1 0
BITMAP
E3
E3
F3
F3
DB
DB
CF
CF
CF
C7
C7
ENDCHAR
STARTCHAR char79
ENCODING 79
SWIDTH 586 0
DWIDTH 11 0
BBX 9 11 1 0
BITMAP
3E00
6300
C180
C180
C180
C180
C180
C180
C180
6300
3E00
ENDCHAR
STARTCHAR char80
ENCODING 80
SWIDTH 480 0
DWIDTH 9 0
BBX 7 11 1 0
BITMAP
FC
C6
C6
C6
FC
C0
C0
C0
C0
C0
C0
ENDCHAR
STARTCHAR char81
ENCODING 81
SWIDTH 586 0
DWIDTH 11 0
BBX 9 12 1 -1
BITMAP
3E00
6300
C180
C180
C180
C180
C180
FD80
FD80
6700
3E00
0380
ENDCHAR
STARTCHAR char82
ENCODING 82
SWIDTH 533 0
DWIDTH 10 0
BBX 8 11 1 0
BITMAP
FE
C3
C3
C3
FE
CC
C6
C6
C6
C3
C3
ENDCHAR
STARTCHAR char83
ENCODING 83
SWIDTH 533 0
DWIDTH 10 0
BBX 8 11 1 0
BITMAP
7E
C3
C3
C0
70
1E
03
C3
C3
C3
7E
ENDCHAR
STARTCHAR char84
ENCODING 84
SWIDTH 533 0
DWIDTH 10 0
BBX 10 11 0 0
BITMAP
FFC0
0C00
0C00
0C00
0C00
0C00
0C00
0C00
0C00
0C00
0C00
ENDCHAR
STARTCHAR char85
ENCODING 85
SWIDTH 533 0
DWIDTH 10 0
BBX 8 11 1 0
BITMAP
C3
C3
C3
C3
C3
C3
C3
C3
C3
C3
7E
ENDCHAR
STARTCHAR char86
ENCODING 86
SWIDTH 533 0
DWIDTH 10 0
BBX 10 11 0 0
BITMAP
C0C0
C0C0
6180
6180
3300
3300
1E00
1E00
1E00
0C00
0C00
ENDCHAR
STARTCHAR char87
ENCODING 87
SWIDTH 746 0
DWIDTH 14 0
BBX 14 11 0 0
BITMAP
C30C
C30C
6798
6798
6798
3CF0
3CF0
3CF0
1860
1860
1860
ENDCHAR
STARTCHAR char88
ENCODING 88
SWIDTH 533 0
DWIDTH 10 0
BBX 10 11 0 0
BITMAP
C0C0
6180
3300
1E00
0C00
0C00
1E00
3300
3300
6180
C0C0
ENDCHAR
STARTCHAR char89
ENCODING 89
SWIDTH 533 0
DWIDTH 10 0
BBX 10 11 0 0
BITMAP
C0C0
C0C0
6180
3300
1E00
0C00
0C00
0C00
0C00
0C00
0C00
ENDCHAR
STARTCHAR char90
ENCODING 90
SWIDTH 586 0
DWIDTH 11 0
BBX 9 11 1 0
BITMAP
FF80
0180
0300
0600
0C00
1800
3000
6000
6000
C000
FF80
ENDCHAR
STARTCHAR char91
ENCODING 91
SWIDTH 266 0
DWIDTH 5 0
BBX 4 13 1 -1
BITMAP
F0
C0
C0
C0
C0
C0
C0
C0
C0
C0
C0
C0
F0
ENDCHAR
STARTCHAR char92
ENCODING 92
SWIDTH 266 0
DWIDTH 5 0
BBX 5 11 0 0
BITMAP
C0
C0
60
60
60
30
30
30
30
18
18
ENDCHAR
STARTCHAR char93
ENCODING 93
SWIDTH 266 0
DWIDTH 5 0
BBX 4 13 0 -1
BITMAP
F0
30
30
30
30
30
30
30
30
30
30
30
F0
ENDCHAR
STARTCHAR char94
ENCODING 94
SWIDTH 480 0
DWIDTH 9 0
BBX 7 3 1 9
BITMAP
38
6C
C6
ENDCHAR
STARTCHAR char95
ENCODING 95
SWIDTH 480 0
DWIDTH 9 0
BBX 9 1 0 -1
BITMAP
FF80
ENDCHAR
STARTCHAR char96
ENCODING 96
SWIDTH 266 0
DWIDTH 5 0
BBX 4 3 0 10
BITMAP
C0
60
30
ENDCHAR
STARTCHAR char97
ENCODING 97
SWIDTH 480 0
DWIDTH 9 0
BBX 8 9 1 0
BITMAP
7C
C6
06
7E
C6
C6
C6
CE
7F
ENDCHAR
STARTCHAR char98
ENCODING 98
SWIDTH 426 0
DWIDTH 8 0
BBX 7 12 1 0
BITMAP
C0
C0
C0
FC
E6
C6
C6
C6
C6
C6
E6
FC
ENDCHAR
STARTCHAR char99
ENCODING 99
SWIDTH 480 0
DWIDTH 9 0
BBX 7 9 1 0
BITMAP
7C
C6
C0
C0
C0
C0
C0
C6
7C
ENDCHAR
STARTCHAR char100
ENCODING 100
SWIDTH 480 0
DWIDTH 9 0
BBX 7 12 1 0
BITMAP
06
06
06
7E
CE
C6
C6
C6
C6
C6
CE
7E
ENDCHAR
STARTCHAR char101
ENCODING 101
SWIDTH 480 0
DWIDTH 9 0
BBX 7 9 1 0
BITMAP
7C
C6
C6
FE
C0
C0
C0
C6
7C
ENDCHAR
STARTCHAR char102
ENCODING 102
SWIDTH 266 0
DWIDTH 5 0
BBX 5 12 0 0
BITMAP
38
60
60
60
F0
60
60
60
60
60
60
60
ENDCHAR
STARTCHAR char103
ENCODING 103
SWIDTH 480 0
DWIDTH 9 0
BBX 7 13 1 -3
BITMAP
06
7E
CC
CC
CC
78
60
60
7C
C6
C6
C6
7C
ENDCHAR
STARTCHAR char104
ENCODING 104
SWIDTH 480 0
DWIDTH 9 0
BBX 7 12 1 0
BITMAP
C0
C0
C0
FC
E6
C6
C6
C6
C6
C6
C6
C6
ENDCHAR
STARTCHAR char105
ENCODING 105
SWIDTH 213 0
DWIDTH 4 0
BBX 2 12 1 0
BITMAP
C0
C0
00
C0
C0
C0
C0
C0
C0
C0
C0
C0
ENDCHAR
STARTCHAR char106
ENCODING 106
SWIDTH 213 0
DWIDTH 4 0
BBX 4 15 -1 -3
BITMAP
30
30
00
30
30
30
30
30
30
30
30
30
30
30
E0
ENDCHAR
STARTCHAR char107
ENCODING 107
SWIDTH 426 0
DWIDTH 8 0
BBX 7 12 1 0
BITMAP
C0
C0
C0
CC
D8
F0
E0
F0
D8
D8
CC
C6
ENDCHAR
STARTCHAR char108
ENCODING 108
SWIDTH 213 0
DWIDTH 4 0
BBX 2 12 1 0
BITMAP
C0
C0
C0
C0
C0
C0
C0
C0
C0
C0
C0
C0
ENDCHAR
STARTCHAR char109
ENCODING 109
SWIDTH 640 0
DWIDTH 12 0
BBX 10 9 1 0
BITMAP
FB80
EEC0
CCC0
CCC0
CCC0
CCC0
CCC0
CCC0
CCC0
ENDCHAR
STARTCHAR char110
ENCODING 110
SWIDTH 480 0
DWIDTH 9 0
BBX 7 9 1 0
BITMAP
FC
E6
C6
C6
C6
C6
C6
C6
C6
ENDCHAR
STARTCHAR char111
ENCODING 111
SWIDTH 480 0
DWIDTH 9 0
BBX 7 9 1 0
BITMAP
7C
C6
C6
C6
C6
C6
C6
C6
7C
ENDCHAR
STARTCHAR char112
ENCODING 112
SWIDTH 480 0
DWIDTH 9 0
BBX 7 12 1 -3
BITMAP
FC
E6
C6
C6
C6
C6
C6
E6
FC
C0
C0
C0
ENDCHAR
STARTCHAR char113
ENCODING 113
SWIDTH 480 0
DWIDTH 9 0
BBX 7 12 1 -3
BITMAP
7E
CE
C6
C6
C6
C6
C6
CE
7E
06
06
06
ENDCHAR
STARTCHAR char114
ENCODING 114
SWIDTH 320 0
DWIDTH 6 0
BBX 5 9 1 0
BITMAP
F8
E0
C0
C0
C0
C0
C0
C0
C0
ENDCHAR
STARTCHAR char115
ENCODING 115
SWIDTH 480 0
DWIDTH 9 0
BBX 7 9 1 0
BITMAP
7C
C6
C0
70
1C
06
06
C6
7C
ENDCHAR
STARTCHAR char116
ENCODING 116
SWIDTH 266 0
DWIDTH 5 0
BBX 5 11 0 0
BITMAP
60
60
F0
60
60
60
60
60
60
60
38
ENDCHAR
STARTCHAR char117
ENCODING 117
SWIDTH 480 0
DWIDTH 9 0
BBX 7 9 1 0
BITMAP
C6
C6
C6
C6
C6
C6
C6
CE
7E
ENDCHAR
STARTCHAR char118
ENCODING 118
SWIDTH 426 0
DWIDTH 8 0
BBX 8 9 0 0
BITMAP
C3
C3
66
66
3C
3C
3C
18
18
ENDCHAR
STARTCHAR char119
ENCODING 119
SWIDTH 586 0
DWIDTH 11 0
BBX 10 9 0 0
BITMAP
CCC0
CCC0
CCC0
6D80
7F80
7F80
3300
3300
3300
ENDCHAR
STARTCHAR char120
ENCODING 120
SWIDTH 426 0
DWIDTH 8 0
BBX 7 9 1 0
BITMAP
C6
C6
6C
38
38
6C
6C
C6
C6
ENDCHAR
STARTCHAR char121
ENCODING 121
SWIDTH 480 0
DWIDTH 9 0
BBX 7 12 1 -3
BITMAP
C6
C6
C6
C6
C6
C6
7E
76
06
06
06
7C
ENDCHAR
STARTCHAR char122
ENCODING 122
SWIDTH 426 0
DWIDTH 8 0
BBX 7 9 0 0
BITMAP
FE
06
0C
18
30
60
60
C0
FE
ENDCHAR
STARTCHAR char123
ENCODING 123
SWIDTH 320 0
DWIDTH 6 0
BBX 5 13 0 -1
BITMAP
38
60
60
60
60
C0
C0
60
60
60
60
60
38
ENDCHAR
STARTCHAR char124
ENCODING 124
SWIDTH 213 0
DWIDTH 4 0
BBX 2 16 1 -3
BITMAP
C0
C0
C0
C0
C0
C0
C0
C0
C0
C0
C0
C0
C0
C0
C0
C0
ENDCHAR
STARTCHAR char125
ENCODING 125
SWIDTH 320 0
DWIDTH 6 0
BBX 5 13 0 -1
BITMAP
E0
30
30
30
30
18
18
30
30
30
30
30
E0
ENDCHAR
STARTCHAR char126
ENCODING 126
SWIDTH 480 0
DWIDTH 9 0
BBX 8 3 1 8
BITMAP
73
DB
CE
ENDCHAR
STARTCHAR char8962
ENCODING 127
SWIDTH 426 0
DWIDTH 8 0
BBX 6 8 1 0
BITMAP
30
48
84
84
84
84
84
FC
ENDCHAR
STARTCHAR char199
ENCODING 128
SWIDTH 533 0
DWIDTH 10 0
BBX 8 14 1 -3
BITMAP
7E
C3
C3
C0
C0
C0
C0
C3
C3
C3
7E
18
0C
78
ENDCHAR
STARTCHAR char252
ENCODING 129
SWIDTH 480 0
DWIDTH 9 0
BBX 7 13 1 0
BITMAP
6C
6C
00
00
C6
C6
C6
C6
C6
C6
C6
CE
7E
ENDCHAR
STARTCHAR char233
ENCODING 130
SWIDTH 480 0
DWIDTH 9 0
BBX 7 13 1 0
BITMAP
1C
70
00
00
7C
C6
C6
FE
C0
C0
C0
C6
7C
ENDCHAR
STARTCHAR char226
ENCODING 131
SWIDTH 480 0
DWIDTH 9 0
BBX 8 13 1 0
BITMAP
38
6C
00
00
7C
C6
06
7E
C6
C6
C6
CE
7F
ENDCHAR
STARTCHAR char228
ENCODING 132
SWIDTH 480 0
DWIDTH 9 0
BBX 8 13 1 0
BITMAP
6C
6C
00
00
7C
C6
06
7E
C6
C6
C6
CE
7F
ENDCHAR
STARTCHAR char224
ENCODING 133
SWIDTH 480 0
DWIDTH 9 0
BBX 8 13 1 0
BITMAP
70
1C
00
00
7C
C6
06
7E
C6
C6
C6
CE
7F
ENDCHAR
STARTCHAR char229
ENCODING 134
SWIDTH 480 0
DWIDTH 9 0
BBX 8 14 1 0
BITMAP
38
6C
38
00
00
7C
C6
06
7E
C6
C6
C6
CE
7F
ENDCHAR
STARTCHAR char231
ENCODING 135
SWIDTH 480 0
DWIDTH 9 0
BBX 7 12 1 -3
BITMAP
7C
C6
C0
C0
C0
C0
C0
C6
7C
18
0C
78
ENDCHAR
STARTCHAR char234
ENCODING 136
SWIDTH 480 0
DWIDTH 9 0
BBX 7 13 1 0
BITMAP
38
6C
00
00
7C
C6
C6
FE
C0
C0
C0
C6
7C
ENDCHAR
STARTCHAR char235
ENCODING 137
SWIDTH 480 0
DWIDTH 9 0
BBX 7 13 1 0
BITMAP
6C
6C
00
00
7C
C6
C6
FE
C0
C0
C0
C6
7C
ENDCHAR
STARTCHAR char232
ENCODING 138
SWIDTH 480 0
DWIDTH 9 0
BBX 7 13 1 0
BITMAP
70
1C
00
00
7C
C6
C6
FE
C0
C0
C0
C6
7C
ENDCHAR
STARTCHAR char239
ENCODING 139
SWIDTH 213 0
DWIDTH 4 0
BBX 5 13 0 0
BITMAP
D8
D8
00
00
60
60
60
60
60
60
60
60
60
ENDCHAR
STARTCHAR char238
ENCODING 140
SWIDTH 213 0
DWIDTH 4 0
BBX 5 13 0 0
BITMAP
70
D8
00
00
60
60
60
60
60
60
60
60
60
ENDCHAR
STARTCHAR char236
ENCODING 141
SWIDTH 213 0
DWIDTH 4 0
BBX 5 13 0 0
BITMAP
E0
38
00
00
60
60
60
60
60
60
60
60
60
ENDCHAR
STARTCHAR char196
ENCODING 142
SWIDTH 533 0
DWIDTH 10 0
BBX 10 15 0 0
BITMAP
1B00
1B00
0000
0000
0C00
0C00
1E00
1E00
3300
3300
7F80
6180
6180
C0C0
C0C0
ENDCHAR
STARTCHAR char197
ENCODING 143
SWIDTH 533 0
DWIDTH 10 0
BBX 10 15 0 0
BITMAP
0E00
1B00
0E00
0000
0C00
0C00
1E00
1E00
3300
3300
7F80
6180
6180
C0C0
C0C0
ENDCHAR
STARTCHAR char201
ENCODING 144
SWIDTH 533 0
DWIDTH 10 0
BBX 8 15 1 0
BITMAP
1C
70
00
00
FF
C0
C0
C0
FE
C0
C0
C0
C0
C0
FF
ENDCHAR
STARTCHAR char230
ENCODING 145
SWIDTH 746 0
DWIDTH 14 0
BBX 12 9 1 0
BITMAP
7FE0
C630
0630
7FF0
C600
C600
C600
CE30
7FE0
ENDCHAR
STARTCHAR char198
ENCODING 146
SWIDTH 746 0
DWIDTH 14 0
BBX 12 11 1 0
BITMAP
0FF0
0F00
1B00
1B00
3FF0
3300
6300
6300
6300
C300
C3F0
ENDCHAR
STARTCHAR char244
ENCODING 147
SWIDTH 480 0
DWIDTH 9 0
BBX 7 13 1 0
BITMAP
38
6C
00
00
7C
C6
C6
C6
C6
C6
C6
C6
7C
ENDCHAR
STARTCHAR char246
ENCODING 148
SWIDTH 480 0
DWIDTH 9 0
BBX 7 13 1 0
BITMAP
6C
6C
00
00
7C
C6
C6
C6
C6
C6
C6
C6
7C
ENDCHAR
STARTCHAR char242
ENCODING 149
SWIDTH 480 0
DWIDTH 9 0
BBX 7 13 1 0
BITMAP
70
1C
00
00
7C
C6
C6
C6
C6
C6
C6
C6
7C
ENDCHAR
STARTCHAR char251
ENCODING 150
SWIDTH 480 0
DWIDTH 9 0
BBX 7 13 1 0
BITMAP
38
6C
00
00
C6
C6
C6
C6
C6
C6
C6
CE
7E
ENDCHAR
STARTCHAR char249
ENCODING 151
SWIDTH 480 0
DWIDTH 9 0
BBX 7 13 1 0
BITMAP
70
1C
00
00
C6
C6
C6
C6
C6
C6
C6
CE
7E
ENDCHAR
STARTCHAR char255
ENCODING 152
SWIDTH 480 0
DWIDTH 9 0
BBX 7 16 1 -3
BITMAP
6C
6C
00
00
C6
C6
C6
C6
C6
6E
6E
3E
06
06
06
7C
ENDCHAR
STARTCHAR char214
ENCODING 153
SWIDTH 586 0
DWIDTH 11 0
BBX 9 15 1 0
BITMAP
3600
3600
0000
0000
3E00
6300
C180
C180
C180
C180
C180
C180
C180
6300
3E00
ENDCHAR
STARTCHAR char220
ENCODING 154
SWIDTH 533 0
DWIDTH 10 0
BBX 8 15 1 0
BITMAP
6C
6C
00
00
C3
C3
C3
C3
C3
C3
C3
C3
C3
C3
7E
ENDCHAR
STARTCHAR char162
ENCODING 155
SWIDTH 480 0
DWIDTH 9 0
BBX 8 11 1 0
BITMAP
18
18
7E
DB
D8
D8
DB
7E
7E
18
18
ENDCHAR
STARTCHAR char163
ENCODING 156
SWIDTH 480 0
DWIDTH 9 0
BBX 8 11 0 0
BITMAP
1E
33
30
30
FC
30
30
30
30
7E
E3
ENDCHAR
STARTCHAR char165
ENCODING 157
SWIDTH 480 0
DWIDTH 9 0
BBX 8 11 0 0
BITMAP
C3
66
3C
18
FF
18
FF
18
18
18
18
ENDCHAR
STARTCHAR char158
ENCODING 158
SWIDTH 480 0
DWIDTH 9 0
BBX 8 12 0 0
BITMAP
FE
FF
C3
C7
FE
C2
C6
CF
C6
C6
C6
C3
ENDCHAR
STARTCHAR char402
ENCODING 159
SWIDTH 480 0
DWIDTH 9 0
BBX 6 13 1 -1
BITMAP
1C
30
30
30
FC
30
30
30
30
30
30
30
E0
ENDCHAR
STARTCHAR char225
ENCODING 160
SWIDTH 480 0
DWIDTH 9 0
BBX 8 13 1 0
BITMAP
1C
70
00
00
7C
C6
06
7E
C6
C6
C6
CE
7F
ENDCHAR
STARTCHAR char237
ENCODING 161
SWIDTH 213 0
DWIDTH 4 0
BBX 5 13 0 0
BITMAP
38
E0
00
00
60
60
60
60
60
60
60
60
60
ENDCHAR
STARTCHAR char243
ENCODING 162
SWIDTH 480 0
DWIDTH 9 0
BBX 7 13 1 0
BITMAP
1C
70
00
00
7C
C6
C6
C6
C6
C6
C6
C6
7C
ENDCHAR
STARTCHAR char250
ENCODING 163
SWIDTH 480 0
DWIDTH 9 0
BBX 7 13 1 0
BITMAP
1C
70
00
00
C6
C6
C6
C6
C6
C6
C6
CE
7E
ENDCHAR
STARTCHAR char241
ENCODING 164
SWIDTH 480 0
DWIDTH 9 0
BBX 7 13 1 0
BITMAP
76
DC
00
00
FC
E6
C6
C6
C6
C6
C6
C6
C6
ENDCHAR
STARTCHAR char209
ENCODING 165
SWIDTH 533 0
DWIDTH 10 0
BBX 8 15 1 0
BITMAP
76
DC
00
00
E3
E3
F3
F3
DB
DB
CF
CF
CF
C7
C7
ENDCHAR
STARTCHAR char170
ENCODING 166
SWIDTH 426 0
DWIDTH 8 0
BBX 6 7 1 5
BITMAP
78
0C
7C
CC
7C
00
FC
ENDCHAR
STARTCHAR char186
ENCODING 167
SWIDTH 426 0
DWIDTH 8 0
BBX 6 7 1 5
BITMAP
78
CC
CC
CC
78
00
FC
ENDCHAR
STARTCHAR char191
ENCODING 168
SWIDTH 480 0
DWIDTH 9 0
BBX 7 11 1 0
BITMAP
18
18
00
18
18
70
C6
C6
C6
C6
7C
ENDCHAR
STARTCHAR char8988
ENCODING 169
SWIDTH 426 0
DWIDTH 8 0
BBX 4 4 1 9
BITMAP
F0
80
80
80
ENDCHAR
STARTCHAR char8989
ENCODING 170
SWIDTH 426 0
DWIDTH 8 0
BBX 4 4 3 9
BITMAP
F0
10
10
10
ENDCHAR
STARTCHAR char189
ENCODING 171
SWIDTH 640 0
DWIDTH 12 0
BBX 9 11 1 0
BITMAP
6300
E300
6600
6C00
6C00
1B00
1F80
3180
3180
6300
6780
ENDCHAR
STARTCHAR char188
ENCODING 172
SWIDTH 640 0
DWIDTH 12 0
BBX 10 11 1 0
BITMAP
6300
E300
6600
6C00
6C00
1980
1B80
3780
3780
67C0
6180
ENDCHAR
STARTCHAR char161
ENCODING 173
SWIDTH 266 0
DWIDTH 5 0
BBX 2 11 1 0
BITMAP
C0
C0
00
C0
C0
C0
C0
C0
C0
C0
C0
ENDCHAR
STARTCHAR char171
ENCODING 174
SWIDTH 480 0
DWIDTH 9 0
BBX 7 10 1 0
BITMAP
36
36
6C
6C
D8
6C
6C
6C
36
36
ENDCHAR
STARTCHAR char187
ENCODING 175
SWIDTH 480 0
DWIDTH 9 0
BBX 7 10 1 0
BITMAP
D8
D8
6C
6C
36
6C
6C
6C
D8
D8
ENDCHAR
STARTCHAR char9617
ENCODING 176
SWIDTH 426 0
DWIDTH 8 0
BBX 8 16 0 -2
BITMAP
88
22
88
22
88
22
88
22
88
22
88
22
88
22
88
22
ENDCHAR
STARTCHAR char9618
ENCODING 177
SWIDTH 426 0
DWIDTH 8 0
BBX 8 16 0 -2
BITMAP
AA
55
AA
55
AA
55
AA
55
AA
55
AA
55
AA
55
AA
55
ENDCHAR
STARTCHAR char9619
ENCODING 178
SWIDTH 426 0
DWIDTH 8 0
BBX 8 16 0 -2
BITMAP
EE
BB
EE
BB
EE
BB
EE
BB
EE
BB
EE
BB
EE
BB
EE
BB
ENDCHAR
STARTCHAR char9474
ENCODING 179
SWIDTH 426 0
DWIDTH 8 0
BBX 8 16 0 -2
BITMAP
08
08
08
08
08
08
08
08
08
08
08
08
08
08
08
08
ENDCHAR
STARTCHAR char9508
ENCODING 180
SWIDTH 426 0
DWIDTH 8 0
BBX 8 16 0 -2
BITMAP
08
08
08
08
08
08
08
F8
08
08
08
08
08
08
08
08
ENDCHAR
STARTCHAR char9569
ENCODING 181
SWIDTH 426 0
DWIDTH 8 0
BBX 8 16 0 -2
BITMAP
08
08
08
08
08
08
F8
08
F8
08
08
08
08
08
08
08
ENDCHAR
STARTCHAR char9570
ENCODING 182
SWIDTH 426 0
DWIDTH 8 0
BBX 8 16 0 -2
BITMAP
14
14
14
14
14
14
14
F4
14
14
14
14
14
14
14
14
ENDCHAR
STARTCHAR char9558
ENCODING 183
SWIDTH 426 0
DWIDTH 8 0
BBX 6 10 0 -2
BITMAP
FC
14
14
14
14
14
14
14
14
14
ENDCHAR
STARTCHAR char9557
ENCODING 184
SWIDTH 426 0
DWIDTH 8 0
BBX 5 10 0 -2
BITMAP
F8
08
F8
08
08
08
08
08
08
08
ENDCHAR
STARTCHAR char9571
ENCODING 185
SWIDTH 426 0
DWIDTH 8 0
BBX 8 16 0 -2
BITMAP
14
14
14
14
14
14
F4
04
F4
14
14
14
14
14
14
14
ENDCHAR
STARTCHAR char9553
ENCODING 186
SWIDTH 426 0
DWIDTH 8 0
BBX 8 16 0 -2
BITMAP
14
14
14
14
14
14
14
14
14
14
14
14
14
14
14
14
ENDCHAR
STARTCHAR char9559
ENCODING 187
SWIDTH 426 0
DWIDTH 8 0
BBX 6 10 0 -2
BITMAP
FC
04
F4
14
14
14
14
14
14
14
ENDCHAR
STARTCHAR char9565
ENCODING 188
SWIDTH 426 0
DWIDTH 8 0
BBX 6 9 0 5
BITMAP
14
14
14
14
14
14
F4
04
FC
ENDCHAR
STARTCHAR char9564
ENCODING 189
SWIDTH 426 0
DWIDTH 8 0
BBX 6 8 0 6
BITMAP
14
14
14
14
14
14
14
FC
ENDCHAR
STARTCHAR char9563
ENCODING 190
SWIDTH 426 0
DWIDTH 8 0
BBX 5 9 0 5
BITMAP
08
08
08
08
08
08
F8
08
F8
ENDCHAR
STARTCHAR char9488
ENCODING 191
SWIDTH 426 0
DWIDTH 8 0
BBX 5 9 0 -2
BITMAP
F8
08
08
08
08
08
08
08
08
ENDCHAR
STARTCHAR char9492
ENCODING 192
SWIDTH 426 0
DWIDTH 8 0
BBX 4 8 4 6
BITMAP
80
80
80
80
80
80
80
F0
ENDCHAR
STARTCHAR char9524
ENCODING 193
SWIDTH 426 0
DWIDTH 8 0
BBX 8 8 0 6
BITMAP
08
08
08
08
08
08
08
FF
ENDCHAR
STARTCHAR char9516
ENCODING 194
SWIDTH 426 0
DWIDTH 8 0
BBX 8 9 0 -2
BITMAP
FF
08
08
08
08
08
08
08
08
ENDCHAR
STARTCHAR char9500
ENCODING 195
SWIDTH 426 0
DWIDTH 8 0
BBX 8 16 0 -2
BITMAP
08
08
08
08
08
08
08
0F
08
08
08
08
08
08
08
08
ENDCHAR
STARTCHAR char9472
ENCODING 196
SWIDTH 426 0
DWIDTH 8 0
BBX 8 1 0 6
BITMAP
FF
ENDCHAR
STARTCHAR char9532
ENCODING 197
SWIDTH 426 0
DWIDTH 8 0
BBX 8 16 0 -2
BITMAP
08
08
08
08
08
08
08
FF
08
08
08
08
08
08
08
08
ENDCHAR
STARTCHAR char9566
ENCODING 198
SWIDTH 426 0
DWIDTH 8 0
BBX 8 16 0 -2
BITMAP
08
08
08
08
08
08
0F
08
0F
08
08
08
08
08
08
08
ENDCHAR
STARTCHAR char9567
ENCODING 199
SWIDTH 426 0
DWIDTH 8 0
BBX 8 16 0 -2
BITMAP
14
14
14
14
14
14
14
17
14
14
14
14
14
14
14
14
ENDCHAR
STARTCHAR char9562
ENCODING 200
SWIDTH 426 0
DWIDTH 8 0
BBX 5 9 3 5
BITMAP
A0
A0
A0
A0
A0
A0
B8
80
F8
ENDCHAR
STARTCHAR char9556
ENCODING 201
SWIDTH 426 0
DWIDTH 8 0
BBX 5 10 3 -2
BITMAP
F8
80
B8
A0
A0
A0
A0
A0
A0
A0
ENDCHAR
STARTCHAR char9577
ENCODING 202
SWIDTH 426 0
DWIDTH 8 0
BBX 8 9 0 5
BITMAP
14
14
14
14
14
14
F7
00
FF
ENDCHAR
STARTCHAR char9574
ENCODING 203
SWIDTH 426 0
DWIDTH 8 0
BBX 8 10 0 -2
BITMAP
FF
00
F7
14
14
14
14
14
14
14
ENDCHAR
STARTCHAR char9568
ENCODING 204
SWIDTH 426 0
DWIDTH 8 0
BBX 8 16 0 -2
BITMAP
14
14
14
14
14
14
17
10
17
14
14
14
14
14
14
14
ENDCHAR
STARTCHAR char9552
ENCODING 205
SWIDTH 426 0
DWIDTH 8 0
BBX 8 3 0 5
BITMAP
FF
00
FF
ENDCHAR
STARTCHAR char9580
ENCODING 206
SWIDTH 426 0
DWIDTH 8 0
BBX 8 16 0 -2
BITMAP
14
14
14
14
14
14
F7
00
F7
14
14
14
14
14
14
14
ENDCHAR
STARTCHAR char9575
ENCODING 207
SWIDTH 426 0
DWIDTH 8 0
BBX 8 9 0 5
BITMAP
08
08
08
08
08
08
FF
00
FF
ENDCHAR
STARTCHAR char9576
ENCODING 208
SWIDTH 426 0
DWIDTH 8 0
BBX 8 8 0 6
BITMAP
14
14
14
14
14
14
14
FF
ENDCHAR
STARTCHAR char9572
ENCODING 209
SWIDTH 426 0
DWIDTH 8 0
BBX 8 10 0 -2
BITMAP
FF
00
FF
08
08
08
08
08
08
08
ENDCHAR
STARTCHAR char9573
ENCODING 210
SWIDTH 426 0
DWIDTH 8 0
BBX 8 9 0 -2
BITMAP
FF
14
14
14
14
14
14
14
14
ENDCHAR
STARTCHAR char9561
ENCODING 211
SWIDTH 426 0
DWIDTH 8 0
BBX 5 8 3 6
BITMAP
A0
A0
A0
A0
A0
A0
A0
F8
ENDCHAR
STARTCHAR char9560
ENCODING 212
SWIDTH 426 0
DWIDTH 8 0
BBX 4 9 4 5
BITMAP
80
80
80
80
80
80
F0
80
F0
ENDCHAR
STARTCHAR char9554
ENCODING 213
SWIDTH 426 0
DWIDTH 8 0
BBX 4 10 4 -2
BITMAP
F0
80
F0
80
80
80
80
80
80
80
ENDCHAR
STARTCHAR char9555
ENCODING 214
SWIDTH 426 0
DWIDTH 8 0
BBX 5 9 3 -2
BITMAP
F8
A0
A0
A0
A0
A0
A0
A0
A0
ENDCHAR
STARTCHAR char9579
ENCODING 215
SWIDTH 426 0
DWIDTH 8 0
BBX 8 16 0 -2
BITMAP
14
14
14
14
14
14
14
FF
14
14
14
14
14
14
14
14
ENDCHAR
STARTCHAR char9578
ENCODING 216
SWIDTH 426 0
DWIDTH 8 0
BBX 8 16 0 -2
BITMAP
08
08
08
08
08
08
FF
08
FF
08
08
08
08
08
08
08
ENDCHAR
STARTCHAR char9496
ENCODING 217
SWIDTH 426 0
DWIDTH 8 0
BBX 5 8 0 6
BITMAP
08
08
08
08
08
08
08
F8
ENDCHAR
STARTCHAR char9484
ENCODING 218
SWIDTH 426 0
DWIDTH 8 0
BBX 4 9 4 -2
BITMAP
F0
80
80
80
80
80
80
80
80
ENDCHAR
STARTCHAR char9608
ENCODING 219
SWIDTH 426 0
DWIDTH 8 0
BBX 8 16 0 -2
BITMAP
FF
FF
FF
FF
FF
FF
FF
FF
FF
FF
FF
FF
FF
FF
FF
FF
ENDCHAR
STARTCHAR char9605
ENCODING 220
SWIDTH 426 0
DWIDTH 8 0
BBX 8 8 0 -2
BITMAP
FF
FF
FF
FF
FF
FF
FF
FF
ENDCHAR
STARTCHAR char9611
ENCODING 221
SWIDTH 213 0
DWIDTH 4 0
BBX 4 16 0 -2
BITMAP
F0
F0
F0
F0
F0
F0
F0
F0
F0
F0
F0
F0
F0
F0
F0
F0
ENDCHAR
STARTCHAR char9610
ENCODING 222
SWIDTH 426 0
DWIDTH 8 0
BBX 4 16 4 -2
BITMAP
F0
F0
F0
F0
F0
F0
F0
F0
F0
F0
F0
F0
F0
F0
F0
F0
ENDCHAR
STARTCHAR char9600
ENCODING 223
SWIDTH 426 0
DWIDTH 8 0
BBX 8 8 0 6
BITMAP
FF
FF
FF
FF
FF
FF
FF
FF
ENDCHAR
STARTCHAR char945
ENCODING 224
SWIDTH 480 0
DWIDTH 9 0
BBX 7 9 1 0
BITMAP
76
DE
CC
CC
CC
CC
CC
DE
76
ENDCHAR
STARTCHAR char946
ENCODING 225
SWIDTH 480 0
DWIDTH 9 0
BBX 7 13 1 -2
BITMAP
78
CC
CC
CC
FC
C6
C6
C6
C6
E6
FC
C0
C0
ENDCHAR
STARTCHAR char915
ENCODING 226
SWIDTH 480 0
DWIDTH 9 0
BBX 7 11 1 0
BITMAP
FE
C0
C0
C0
C0
C0
C0
C0
C0
C0
C0
ENDCHAR
STARTCHAR char960
ENCODING 227
SWIDTH 480 0
DWIDTH 9 0
BBX 7 9 1 0
BITMAP
FE
6C
6C
6C
6C
6C
6C
6C
6C
ENDCHAR
STARTCHAR char931
ENCODING 228
SWIDTH 480 0
DWIDTH 9 0
BBX 7 11 1 0
BITMAP
FE
C0
60
30
18
18
30
60
60
C0
FE
ENDCHAR
STARTCHAR char963
ENCODING 229
SWIDTH 480 0
DWIDTH 9 0
BBX 8 9 1 0
BITMAP
7F
D8
CC
CC
CC
CC
CC
CC
78
ENDCHAR
STARTCHAR char956
ENCODING 230
SWIDTH 480 0
DWIDTH 9 0
BBX 7 11 1 -2
BITMAP
C6
C6
C6
C6
C6
C6
EE
FE
C6
C0
C0
ENDCHAR
STARTCHAR char947
ENCODING 231
SWIDTH 480 0
DWIDTH 9 0
BBX 8 9 1 0
BITMAP
73
DB
1E
0C
18
18
18
30
30
ENDCHAR
STARTCHAR char934
ENCODING 232
SWIDTH 480 0
DWIDTH 9 0
BBX 8 11 1 0
BITMAP
FF
18
7E
DB
DB
DB
DB
7E
7E
18
FF
ENDCHAR
STARTCHAR char920
ENCODING 233
SWIDTH 480 0
DWIDTH 9 0
BBX 7 11 1 0
BITMAP
7C
C6
C6
C6
FE
C6
C6
C6
C6
C6
7C
ENDCHAR
STARTCHAR char937
ENCODING 234
SWIDTH 480 0
DWIDTH 9 0
BBX 8 11 1 0
BITMAP
7E
E7
C3
C3
C3
E7
66
66
24
66
E7
ENDCHAR
STARTCHAR char948
ENCODING 235
SWIDTH 480 0
DWIDTH 9 0
BBX 7 11 1 0
BITMAP
3C
60
60
60
38
6C
C6
C6
C6
C6
7C
ENDCHAR
STARTCHAR char8734
ENCODING 236
SWIDTH 426 0
DWIDTH 8 0
BBX 7 4 1 3
BITMAP
6C
92
92
6C
ENDCHAR
STARTCHAR char8709
ENCODING 237
SWIDTH 426 0
DWIDTH 8 0
BBX 7 7 1 0
BITMAP
3A
44
8A
92
A2
44
B8
ENDCHAR
STARTCHAR char8712
ENCODING 238
SWIDTH 426 0
DWIDTH 8 0
BBX 6 7 1 0
BITMAP
7C
80
80
FC
80
80
7C
ENDCHAR
STARTCHAR char8745
ENCODING 239
SWIDTH 426 0
DWIDTH 8 0
BBX 6 8 1 0
BITMAP
78
84
84
84
84
84
84
84
ENDCHAR
STARTCHAR char8801
ENCODING 240
SWIDTH 426 0
DWIDTH 8 0
BBX 6 5 1 2
BITMAP
FC
00
FC
00
FC
ENDCHAR
STARTCHAR char177
ENCODING 241
SWIDTH 533 0
DWIDTH 10 0
BBX 8 10 1 1
BITMAP
18
18
18
FF
18
18
18
00
00
FF
ENDCHAR
STARTCHAR char8805
ENCODING 242
SWIDTH 426 0
DWIDTH 8 0
BBX 6 7 1 1
BITMAP
C0
30
0C
30
C0
00
FC
ENDCHAR
STARTCHAR char8804
ENCODING 243
SWIDTH 426 0
DWIDTH 8 0
BBX 6 7 1 1
BITMAP
0C
30
C0
30
0C
00
FC
ENDCHAR
STARTCHAR char8992
ENCODING 244
SWIDTH 426 0
DWIDTH 8 0
BBX 3 12 4 -2
BITMAP
60
A0
80
80
80
80
80
80
80
80
80
80
ENDCHAR
STARTCHAR char8993
ENCODING 245
SWIDTH 426 0
DWIDTH 8 0
BBX 3 12 2 2
BITMAP
20
20
20
20
20
20
20
20
20
20
A0
C0
ENDCHAR
STARTCHAR char247
ENCODING 246
SWIDTH 480 0
DWIDTH 9 0
BBX 7 9 1 1
BITMAP
10
38
10
00
FE
00
10
38
10
ENDCHAR
STARTCHAR char8776
ENCODING 247
SWIDTH 426 0
DWIDTH 8 0
BBX 6 5 1 2
BITMAP
64
98
00
64
98
ENDCHAR
STARTCHAR char176
ENCODING 248
SWIDTH 373 0
DWIDTH 7 0
BBX 5 4 1 10
BITMAP
70
D8
D8
70
ENDCHAR
STARTCHAR char8729
ENCODING 249
SWIDTH 426 0
DWIDTH 8 0
BBX 4 4 2 2
BITMAP
60
F0
F0
60
ENDCHAR
STARTCHAR char173
ENCODING 250
SWIDTH 266 0
DWIDTH 5 0
BBX 4 1 0 4
BITMAP
F0
ENDCHAR
STARTCHAR char8730
ENCODING 251
SWIDTH 426 0
DWIDTH 8 0
BBX 7 13 1 -1
BITMAP
0E
08
08
08
08
08
E8
28
28
18
18
08
08
ENDCHAR
STARTCHAR char8319
ENCODING 252
SWIDTH 426 0
DWIDTH 8 0
BBX 5 5 2 5
BITMAP
B0
C8
88
88
88
ENDCHAR
STARTCHAR char178
ENCODING 253
SWIDTH 373 0
DWIDTH 7 0
BBX 6 7 0 5
BITMAP
78
CC
0C
78
C0
C0
FC
ENDCHAR
STARTCHAR char8718
ENCODING 254
SWIDTH 426 0
DWIDTH 8 0
BBX 6 6 1 0
BITMAP
FC
FC
FC
FC
FC
FC
ENDCHAR
STARTCHAR char414
ENCODING 255
SWIDTH 0 0
DWIDTH 0 0
BBX 0 0 0 0
BITMAP
ENDCHAR
ENDFONT
